# xmcd CD database file
#
# Track frame offsets:
#	150
#	29110
#	53735
#	75310
#	96672
#	115905
#	145615
#	175465
#	195582
#	225230
#	253620
#	281787
#
# Disc length: 4004 seconds
#
# Revision: 0
# Processed by: cddbd v1.5.2PL0 Copyright (c) Steve Scherf et al.
# Submitted via: CDex 1.70beta2
#
DISCID=a40fa20c
DTITLE=Harry Allen Quartet - A Little Touch Of Harry
DYEAR=1996
DGENRE=Jazz
TTITLE0=From This Moment On
TTITLE1=Luck Be A Lady Tonight
TTITLE2=Nobody's Heart
TTITLE3=Just Like Another Dream 
TTITLE4=All God's Chillin' Got Rhythm
TTITLE5=I Wanna Be Around
TTITLE6=This Is All I Ask
TTITLE7=I Never Knew
TTITLE8=It Might As Well Be Spring
TTITLE9=Spring Can Really Hang Up The Most
TTITLE10=Easy To Love
TTITLE11=I Get Along Without You Very Well
EXTD=YEAR: 1996
EXTT0=
EXTT1=
EXTT2=
EXTT3=
EXTT4=
EXTT5=
EXTT6=
EXTT7=
EXTT8=
EXTT9=
EXTT10=
EXTT11=
PLAYORDER=
